<svg width="19" height="19" viewBox="0 0 19 19" fill="none" xmlns="http://www.w3.org/2000/svg">
<path d="M9.25 0.25C14.2206 0.25 18.25 4.27944 18.25 9.25C18.25 14.2206 14.2206 18.25 9.25 18.25C4.27944 18.25 0.25 14.2206 0.25 9.25C0.25 4.27944 4.27944 0.25 9.25 0.25ZM6.50684 9.75C6.55897 11.9308 6.94838 13.854 7.52148 15.2295C7.83064 15.9714 8.17353 16.5064 8.50293 16.8408C8.82887 17.1717 9.08059 17.25 9.25 17.25C9.41941 17.25 9.67113 17.1717 9.99707 16.8408C10.3265 16.5064 10.6694 15.9714 10.9785 15.2295C11.5516 13.854 11.941 11.9308 11.9932 9.75H6.50684ZM1.26758 9.75C1.48619 13.2941 4.01062 16.212 7.36035 17.0234C6.30438 15.541 5.57671 12.8555 5.50586 9.75H1.26758ZM12.9941 9.75C12.9233 12.8558 12.1948 15.5411 11.1387 17.0234C14.4889 16.2123 17.0138 13.2944 17.2324 9.75H12.9941ZM7.36035 1.47559C4.0105 2.28693 1.4862 5.2058 1.26758 8.75H5.50586C5.57672 5.64403 6.30413 2.95785 7.36035 1.47559ZM9.25 1.25C9.08059 1.25 8.82887 1.32833 8.50293 1.65918C8.17353 1.99356 7.83064 2.52857 7.52148 3.27051C6.94838 4.64595 6.55897 6.56919 6.50684 8.75H11.9932C11.941 6.56919 11.5516 4.64595 10.9785 3.27051C10.6694 2.52857 10.3265 1.99356 9.99707 1.65918C9.67113 1.32833 9.41941 1.25 9.25 1.25ZM11.1387 1.47559C12.1951 2.95776 12.9233 5.64371 12.9941 8.75H17.2324C17.0138 5.20548 14.489 2.28662 11.1387 1.47559Z" fill="white"/>
<path d="M6.50684 9.75V9.5H6.25079L6.25691 9.75597L6.50684 9.75ZM7.52148 15.2295L7.29072 15.3256L7.29072 15.3257L7.52148 15.2295ZM8.50293 16.8408L8.32483 17.0163L8.32484 17.0163L8.50293 16.8408ZM9.25 17.25V17.5V17.25ZM9.99707 16.8408L10.1752 17.0163L10.1752 17.0163L9.99707 16.8408ZM10.9785 15.2295L11.2093 15.3257L11.2093 15.3256L10.9785 15.2295ZM11.9932 9.75L12.2431 9.75597L12.2492 9.5H11.9932V9.75ZM1.26758 9.75V9.5H1.00168L1.01805 9.76539L1.26758 9.75ZM7.36035 17.0234L7.3015 17.2664L7.95275 17.4242L7.56397 16.8784L7.36035 17.0234ZM5.50586 9.75L5.75579 9.7443L5.75022 9.5H5.50586V9.75ZM12.9941 9.75V9.5H12.7498L12.7442 9.7443L12.9941 9.75ZM11.1387 17.0234L10.9351 16.8784L10.5462 17.4241L11.1975 17.2664L11.1387 17.0234ZM17.2324 9.75L17.4819 9.76539L17.4983 9.5H17.2324V9.75ZM7.36035 1.47559L7.56395 1.62066L7.95289 1.07484L7.3015 1.23261L7.36035 1.47559ZM1.26758 8.75L1.01805 8.73461L1.00168 9H1.26758V8.75ZM5.50586 8.75V9H5.75022L5.75579 8.7557L5.50586 8.75ZM9.25 1.25V1V1.25ZM8.50293 1.65918L8.32484 1.48373L8.32483 1.48373L8.50293 1.65918ZM7.52148 3.27051L7.29072 3.17435L7.29072 3.17435L7.52148 3.27051ZM6.50684 8.75L6.25691 8.74403L6.25079 9H6.50684V8.75ZM11.9932 8.75V9H12.2492L12.2431 8.74403L11.9932 8.75ZM10.9785 3.27051L11.2093 3.17435L11.2093 3.17435L10.9785 3.27051ZM9.99707 1.65918L10.1752 1.48373L10.1752 1.48373L9.99707 1.65918ZM11.1387 1.47559L11.1975 1.2326L10.5461 1.07492L10.9351 1.62069L11.1387 1.47559ZM12.9941 8.75L12.7442 8.7557L12.7498 9H12.9941V8.75ZM17.2324 8.75V9H17.4983L17.4819 8.73461L17.2324 8.75ZM9.25 0.25V0.5C14.0825 0.5 18 4.41751 18 9.25H18.25H18.5C18.5 4.14137 14.3586 0 9.25 0V0.25ZM18.25 9.25H18C18 14.0825 14.0825 18 9.25 18V18.25V18.5C14.3586 18.5 18.5 14.3586 18.5 9.25H18.25ZM9.25 18.25V18C4.41751 18 0.5 14.0825 0.5 9.25H0.25H0C0 14.3586 4.14137 18.5 9.25 18.5V18.25ZM0.25 9.25H0.5C0.5 4.41751 4.41751 0.5 9.25 0.5V0.25V0C4.14137 0 0 4.14137 0 9.25H0.25ZM6.50684 9.75L6.25691 9.75597C6.3096 11.9599 6.703 13.9151 7.29072 15.3256L7.52148 15.2295L7.75225 15.1333C7.19376 13.793 6.80835 11.9017 6.75676 9.74403L6.50684 9.75ZM7.52148 15.2295L7.29072 15.3257C7.60744 16.0857 7.96566 16.6517 8.32483 17.0163L8.50293 16.8408L8.68103 16.6654C8.38139 16.3612 8.05385 15.8571 7.75225 15.1333L7.52148 15.2295ZM8.50293 16.8408L8.32484 17.0163C8.68214 17.379 8.99426 17.5 9.25 17.5V17.25V17C9.16693 17 8.97559 16.9644 8.68102 16.6654L8.50293 16.8408ZM9.25 17.25V17.5C9.50574 17.5 9.81786 17.379 10.1752 17.0163L9.99707 16.8408L9.81898 16.6654C9.52441 16.9644 9.33307 17 9.25 17V17.25ZM9.99707 16.8408L10.1752 17.0163C10.5343 16.6517 10.8926 16.0857 11.2093 15.3257L10.9785 15.2295L10.7477 15.1333C10.4462 15.8571 10.1186 16.3612 9.81897 16.6654L9.99707 16.8408ZM10.9785 15.2295L11.2093 15.3256C11.797 13.9151 12.1904 11.9599 12.2431 9.75597L11.9932 9.75L11.7432 9.74403C11.6917 11.9017 11.3062 13.793 10.7477 15.1333L10.9785 15.2295ZM11.9932 9.75V9.5H6.50684V9.75V10H11.9932V9.75ZM1.26758 9.75L1.01805 9.76539C1.24353 13.4208 3.84699 16.4296 7.3015 17.2664L7.36035 17.0234L7.41921 16.7805C4.17424 15.9944 1.72885 13.1674 1.5171 9.73461L1.26758 9.75ZM7.36035 17.0234L7.56397 16.8784C6.54914 15.4537 5.8261 12.8257 5.75579 9.7443L5.50586 9.75L5.25592 9.7557C5.32733 12.8853 6.05962 15.6283 7.15673 17.1685L7.36035 17.0234ZM5.50586 9.75V9.5H1.26758V9.75V10H5.50586V9.75ZM12.9941 9.75L12.7442 9.7443C12.6739 12.826 11.9501 15.4538 10.9351 16.8784L11.1387 17.0234L11.3423 17.1685C12.4396 15.6285 13.1727 12.8857 13.2441 9.7557L12.9941 9.75ZM11.1387 17.0234L11.1975 17.2664C14.6525 16.4299 17.2564 13.4212 17.4819 9.76539L17.2324 9.75L16.9829 9.73461C16.7711 13.1677 14.3253 15.9947 11.0798 16.7805L11.1387 17.0234ZM17.2324 9.75V9.5H12.9941V9.75V10H17.2324V9.75ZM7.36035 1.47559L7.3015 1.23261C3.84684 2.06934 1.24354 5.07912 1.01805 8.73461L1.26758 8.75L1.5171 8.76539C1.72886 5.33249 4.17417 2.50452 7.4192 1.71856L7.36035 1.47559ZM1.26758 8.75V9H5.50586V8.75V8.5H1.26758V8.75ZM5.50586 8.75L5.75579 8.7557C5.82611 5.67376 6.5489 3.04515 7.56395 1.62066L7.36035 1.47559L7.15675 1.33051C6.05936 2.87056 5.32734 5.61431 5.25592 8.7443L5.50586 8.75ZM9.25 1.25V1C8.99426 1 8.68214 1.12104 8.32484 1.48373L8.50293 1.65918L8.68102 1.83463C8.97559 1.53562 9.16693 1.5 9.25 1.5V1.25ZM8.50293 1.65918L8.32483 1.48373C7.96566 1.84833 7.60744 2.41426 7.29072 3.17435L7.52148 3.27051L7.75225 3.36667C8.05385 2.64288 8.38139 2.13879 8.68103 1.83463L8.50293 1.65918ZM7.52148 3.27051L7.29072 3.17435C6.703 4.58486 6.3096 6.54008 6.25691 8.74403L6.50684 8.75L6.75676 8.75597C6.80835 6.59829 7.19376 4.70704 7.75225 3.36666L7.52148 3.27051ZM6.50684 8.75V9H11.9932V8.75V8.5H6.50684V8.75ZM11.9932 8.75L12.2431 8.74403C12.1904 6.54008 11.797 4.58486 11.2093 3.17435L10.9785 3.27051L10.7477 3.36666C11.3062 4.70704 11.6917 6.59829 11.7432 8.75597L11.9932 8.75ZM10.9785 3.27051L11.2093 3.17435C10.8926 2.41426 10.5343 1.84833 10.1752 1.48373L9.99707 1.65918L9.81897 1.83463C10.1186 2.13879 10.4462 2.64288 10.7477 3.36667L10.9785 3.27051ZM9.99707 1.65918L10.1752 1.48373C9.81786 1.12104 9.50574 1 9.25 1V1.25V1.5C9.33307 1.5 9.52441 1.53562 9.81898 1.83463L9.99707 1.65918ZM11.1387 1.47559L10.9351 1.62069C11.9503 3.0451 12.6739 5.67349 12.7442 8.7557L12.9941 8.75L13.2441 8.7443C13.1727 5.61393 12.4398 2.87042 11.3423 1.33049L11.1387 1.47559ZM12.9941 8.75V9H17.2324V8.75V8.5H12.9941V8.75ZM17.2324 8.75L17.4819 8.73461C17.2564 5.07877 14.6526 2.06901 11.1975 1.2326L11.1387 1.47559L11.0799 1.71857C14.3253 2.50422 16.7711 5.33218 16.9829 8.76539L17.2324 8.75Z" fill="white"/>
</svg>
